<svg xmlns="http://www.w3.org/2000/svg" viewBox="0 0 105.12 92.37"><defs><style>.cls-1{fill:#48b033;}.cls-2{fill:#476fb7;}.cls-3{fill:#21528d;}.cls-4{fill:#208833;}</style></defs><title>资源 10</title><g id="图层_2" data-name="图层 2"><g id="图层_1-2" data-name="图层 1"><path class="cls-1" d="M56.58.48S48.22,1.75,43.14,7s-4.54,12.53-4,14.71,7.45,16,17.44,19.25,14.53,3.27,24.15,1.82c0,0-8.12,12-27.06,7.26,0,0,.36,6-4.54,8.9S36.6,61.87,36.6,61.87s5.08-8.67-.52-15.37c-5.84-7-13-2.36-16-.45,0,0,0-10,9.63-8.34,0,0-5.45-16.89,1.09-25.42S46.41-1.7,56.58.48Z"/><path class="cls-2" d="M78.46,12.06S62.25,4.43,54.22,9.74s-9,18-9,18-9.81-15.4,6.12-23.16S78.46,12.06,78.46,12.06Z"/><path class="cls-3" d="M70.56,12.74S78.74,20.1,76,28.68,67.7,39.17,64.16,39.58c0,0,19.62,5,20.57-11S70.56,12.74,70.56,12.74Z"/><path class="cls-4" d="M24.79,46.05s4.09,8.65,11.44,9.74c0,0,2.46,6.53-5.72,5.31S21,49.79,21,49.79,21,47.07,24.79,46.05Z"/><path d="M15.89,80.38a6.71,6.71,0,0,1,2.25,5,7.26,7.26,0,0,1-7.5,7H4.31v0H0v-24H4.31v0h6.33a7.27,7.27,0,0,1,7.5,7A6.74,6.74,0,0,1,15.89,80.38Zm-2.06-5a3.1,3.1,0,0,0-3.19-3H4.31v6h6.33A3.09,3.09,0,0,0,13.83,75.4Zm0,10a3.1,3.1,0,0,0-3.19-3H4.31v6h6.33A3.09,3.09,0,0,0,13.83,85.36Z"/><path d="M37.32,81.93c0,5.46-4,9.9-8.93,9.9h-.61c-4.93,0-8.94-4.44-8.94-9.9s4-9.91,8.94-9.91h.61C33.32,72,37.32,76.47,37.32,81.93Zm-4.1,0a5.13,5.13,0,0,0-4.83-5.36h-.61a5.38,5.38,0,0,0,0,10.71h.61A5.12,5.12,0,0,0,33.22,81.93Z"/><path d="M55.83,82.71v9.12H52.05V82.71c0-3-2.11-5.42-4.72-5.42s-4.73,2.43-4.73,5.42v9.12H38.82V82.71c0-5.38,3.82-9.76,8.51-9.76S55.83,77.33,55.83,82.71Z"/><path d="M72.19,86.31a4.84,4.84,0,0,0,2.37,1.33,4.7,4.7,0,0,0,2.6-.13A4.8,4.8,0,0,0,79.32,86l.1-.11H83.8l-.22.5a9.36,9.36,0,0,1-3.28,4,8.3,8.3,0,0,1-8.09.67,8.68,8.68,0,0,1-2.79-2,9.21,9.21,0,0,1-1.92-3,9.46,9.46,0,0,1-.71-3.59v-.18a9.77,9.77,0,0,1,2.82-7.22,8.32,8.32,0,0,1,2.79-1.84,8.52,8.52,0,0,1,3.21-.61h.12a9.71,9.71,0,0,1,1,.09,8.5,8.5,0,0,1,5.33,3,9.67,9.67,0,0,1,2.35,6.7,10,10,0,0,1-.11,1.42l0,.3H70.88A5.76,5.76,0,0,0,72.19,86.31Zm8.3-5.7a5.65,5.65,0,0,0-.57-1.29,6,6,0,0,0-1.15-1.43,4.93,4.93,0,0,0-3.14-1.16,4.54,4.54,0,0,0-3.11,1.16,5.41,5.41,0,0,0-1.76,2.72Z"/><path d="M92.85,86.31a4.84,4.84,0,0,0,2.37,1.33,4.7,4.7,0,0,0,2.6-.13A4.8,4.8,0,0,0,100,86l.1-.11h4.38l-.22.5a9.36,9.36,0,0,1-3.28,4,8.3,8.3,0,0,1-8.09.67,8.68,8.68,0,0,1-2.79-2,9.21,9.21,0,0,1-1.92-3,9.46,9.46,0,0,1-.71-3.59v-.18a9.8,9.8,0,0,1,2.81-7.22,8.46,8.46,0,0,1,6-2.45h.12a9.71,9.71,0,0,1,1,.09,8.5,8.5,0,0,1,5.33,3,9.67,9.67,0,0,1,2.35,6.7,10,10,0,0,1-.11,1.42l0,.3H91.54A5.76,5.76,0,0,0,92.85,86.31Zm8.3-5.7a5.65,5.65,0,0,0-.57-1.29,6,6,0,0,0-1.15-1.43,4.93,4.93,0,0,0-3.14-1.16,4.54,4.54,0,0,0-3.11,1.16,5.41,5.41,0,0,0-1.76,2.72Z"/><path d="M60.66,91.83H57.35V81s-.26-8.49,9.93-8.35v3s-4.71-.62-6.12,2.68C60.12,80.85,60.66,91.83,60.66,91.83Z"/></g></g></svg>