<svg xmlns="http://www.w3.org/2000/svg" viewBox="0 0 182.17 45.42"><defs><style>.cls-1{fill:#e60113;}</style></defs><title>资源 9</title><g id="图层_2" data-name="图层 2"><g id="图层_1-2" data-name="图层 1"><polygon class="cls-1" points="0 0.01 0 45.41 16.71 45.41 16.71 24.16 42.14 24.16 42.14 45.41 58.45 45.41 58.45 0.01 42.14 0.01 42.14 19.62 16.71 19.62 16.71 0.01 0 0.01"/><path class="cls-1" d="M63.93,0V6.54H83.18s16.9-1.45,16.9,3.64c0,6.17-.91,7.62-16.71,7.62H69.74V24H92.45s9.62.91,9.62,7.08c0,8.9-10.89,7.81-10.89,7.81H63.93v6.54h39.6S119,45.41,119,32.7s-14.89-11.63-14.89-11.63,13.08-1.27,13.08-10.89C117.15,0,106.8,0,106.8,0Z"/><path class="cls-1" d="M182.17,0V8.54l-32.51.18s-8.9.37-8.9,14,13.08,13.07,13.08,13.07h28.33v9.63H148.39s-26.34.91-26.34-22.7S149.48,0,149.48,0Z"/></g></g></svg>