<svg xmlns="http://www.w3.org/2000/svg" viewBox="0 0 237.49 50.35"><defs><style>.cls-1{fill:#4460ac;}.cls-2{fill:#8fc286;}</style></defs><title>资源 11</title><g id="图层_2" data-name="图层 2"><g id="图层_1-2" data-name="图层 1"><path class="cls-1" d="M6.66,4.53h0a6.64,6.64,0,0,1,5.75,3.3l18.13,31L30.38,4.53h8.91v39.2a6.62,6.62,0,0,1-6.62,6.62h0A6.62,6.62,0,0,1,27,47.07L8.81,16l.1,34.32H0V11.19A6.66,6.66,0,0,1,6.66,4.53Z"/><path class="cls-1" d="M83.07,29.92c0-9.77-6.2-17.25-18-17.25-10.23,0-19.86,7.06-19.86,18.82,0,12,9.26,18.86,21.15,18.86,5.12,0,11-1.46,13.85-7.07l-5.72-4.52c-1.76,2.09-3.12,3.46-6.58,3.46-6.25,0-10.28-2.33-11.4-7.53H82.59A29.13,29.13,0,0,0,83.07,29.92Zm-17.6-9.14c4.39,0,7,2.32,7.56,6.77H56.67C57.81,23,61,20.78,65.47,20.78Z"/><path class="cls-2" d="M68.46,10.58C73.67,14.79,82,8.71,82,8.71S73.31-.42,63.4,0,46.56,9.7,46.56,9.7,57.56,1.78,68.46,10.58Z"/><path class="cls-1" d="M152.15,31.39l-15.36-5a3.45,3.45,0,0,1-2.34-3.55,3.07,3.07,0,0,1,3-3H155v-6H135.46c-4.89,0-8.88,3.41-8.88,8.23v3.4c0,2.91,2.49,5.31,5.07,6.14l15.43,5c3.1,1.1,3.26,2.85,3.24,4s-.71,2.88-3.46,3.28H121.14V13.44h-7.71v30.4H97.86a2.32,2.32,0,0,1-2.32-2.32V19.83h12.77V13.44H95.54V3.87H88.83V41a9.4,9.4,0,0,0,9.4,9.4H148.6a8.77,8.77,0,0,0,8.2-8.5v-3.4C156.8,35.9,154.89,32.22,152.15,31.39Z"/><path class="cls-1" d="M117.31,9.59a3.86,3.86,0,0,0,4.17-4,4.2,4.2,0,0,0-8.39,0A3.88,3.88,0,0,0,117.31,9.59Z"/><polygon class="cls-2" points="191.91 43.94 183.33 32.21 183.33 32.16 196.37 32.16 196.37 26.54 181.73 26.54 181.73 18.62 196.37 18.62 196.37 13 160.6 13 160.6 18.62 174.91 18.62 174.91 26.54 160.6 26.54 160.6 32.16 173.8 32.16 173.8 32.17 164.84 44.38 160.6 44.38 160.6 49.83 168.58 49.83 178.63 36.62 188.23 49.44 237.49 49.44 237.49 43.94 191.91 43.94"/><path class="cls-2" d="M230.14,14H201.88V41.13h.05v1.16h29.35A5.33,5.33,0,0,0,236.61,37V14Zm-.95,23.22H208.34V30.4h21.8v5.87A1,1,0,0,1,229.19,37.22Zm.95-11.89h-21.8V19.06h21.8Z"/></g></g></svg>