<svg xmlns="http://www.w3.org/2000/svg" viewBox="0 0 193.7 85.93"><defs><style>.cls-1{fill:#d71517;}.cls-2{font-size:10.74px;font-family:MADEDillan, MADE Dillan;}.cls-3{letter-spacing:-0.03em;}.cls-4{letter-spacing:-0.01em;}.cls-5{letter-spacing:0.01em;}.cls-6{letter-spacing:-0.04em;}.cls-7{letter-spacing:-0.01em;}.cls-8{letter-spacing:0em;}</style></defs><title>资源 4</title><g id="图层_2" data-name="图层 2"><g id="图层_1-2" data-name="图层 1"><path d="M6.45,80.18c.44.26,1,.65,1.71,1.07,1.72,1.06,4,1.19,6.87,1.19a82.19,82.19,0,0,0,9.7-.62,11.87,11.87,0,0,0-.91,3.38c-2,.1-6.09.26-8.92.26-3.25,0-5.33-.31-7.15-1.33-1.07-.6-1.93-1.38-2.47-1.38-.83,0-2.06,1.64-3.15,3.18L0,82.91a13.69,13.69,0,0,1,3.41-2.57V73.05H.26V70.19H6.45ZM5.28,67.91c-1-.94-3-2.53-4.5-3.62l2.05-2c1.38,1,3.54,2.47,4.61,3.38Zm15.91,13c-.23-.55-.57-1.17-.94-1.9-8.73.86-10.06,1-11,1.4a24.8,24.8,0,0,0-1.06-3c.52-.13,1-.65,1.48-1.38A28.41,28.41,0,0,0,12,71.29H7.46V68.4H24.15v2.89H15.81a42,42,0,0,1-3.25,5.56l6.26-.49c-.62-1.15-1.27-2.29-1.87-3.31l2.58-1.16C21,74.28,23,77.53,24,79.5Zm1.27-15.37H9.2V62.68H22.46Z"/><path d="M43.13,74.46A17.81,17.81,0,0,0,43,77c-6.42,1.23-7.49,1.51-8.16,1.93A20.22,20.22,0,0,0,34,76.38c.65-.15,1.22-.78,2-1.71A26.71,26.71,0,0,0,38,72a11.88,11.88,0,0,0-3.3.6c-.16-.57-.63-2-1-2.73.54-.13,1-.68,1.56-1.54a31.74,31.74,0,0,0,3.19-7.09l2.76,1.3a37.59,37.59,0,0,1-3.82,7l2.21-.15c.57-1,1.12-2,1.58-3l2.42,1.48a47.83,47.83,0,0,1-4.86,7.23ZM34,81.56c2.36-.44,6-1.3,9.49-2.08l.28,2.57c-3.19.86-6.6,1.74-9.2,2.45ZM58.16,84H47.89v1.69H45V72.3c-.34.44-.7.88-1.07,1.3a21.43,21.43,0,0,0-1.32-2.89,27.36,27.36,0,0,0,4.5-9.25l3,.83A38.13,38.13,0,0,1,48.59,66H52a19.67,19.67,0,0,0-1.61-3.4L53,61.48a17.5,17.5,0,0,1,1.85,3.62L52.88,66h4.94v2.78h-3.9V71h3.31v2.75H53.92V76h3.36v2.78H53.92v2.34h4.24Zm-7.1-15.22H47.89V71h3.17Zm0,5H47.89V76h3.17Zm-3.17,7.31h3.17V78.75H47.89Z"/><path d="M72.51,65.33a17.75,17.75,0,0,1-2.13,3A25,25,0,0,0,67.7,67a14.12,14.12,0,0,0,3.41-5.8l3,.57c-.18.47-.36,1-.6,1.46h6.22v2.13h-3.2a13.87,13.87,0,0,1,1.07,1.85l-2.63,1a14.91,14.91,0,0,0-1.51-2.81Zm8.12,1.22a12.55,12.55,0,0,1,1,2h9.41v4.55H87.91V70.9h-16v2.23h-3V68.58h9.68a8.8,8.8,0,0,0-.68-1.45ZM75.14,79H89.21v6.71h-3.1V85h-11v.71H72V72H87.83v5.77H75.14Zm0-4.76v1.35h9.67V74.2Zm0,7v1.46h11V81.22Zm16.46-18v2.1H88a13.82,13.82,0,0,1,1.2,1.72l-2.6,1.17a11.84,11.84,0,0,0-1.9-2.89h-1a11,11,0,0,1-1.48,2.08,19.22,19.22,0,0,0-2.55-1.35,11.46,11.46,0,0,0,2.6-4.89l3,.55c-.16.49-.34,1-.55,1.51Z"/><path d="M110.55,80.44c-2.86,1-6,2-8.47,2.81l-.71-3.15c.91-.23,2-.52,3.18-.86V73.13h-2.63V70.3h2.63V65.72h-2.86V62.84h8.58v2.88h-2.79V70.3h2.34v2.83h-2.34v5.2c.86-.26,1.72-.52,2.55-.8ZM126,82v2.8H109.28V82h7.18V79.55h-5.39V76.77h5.39V74.54h-5.21V62.45h13.58V74.54H119.6v2.23h5.51v2.78H119.6V82ZM114,67.26h2.67V65.07H114Zm0,4.65h2.67V69.67H114Zm7.85-6.84h-2.58v2.19h2.58Zm0,4.6h-2.58v2.24h2.58Z"/><path d="M145.24,71.86c-.24.73-.44,1.48-.65,2.18h10.24l.52-.15,2.39,1.35c-1.76,1.9-4,4.16-6.24,6.29,1.43.55,2.68,1.07,3.64,1.56l-1.79,2.71A63.56,63.56,0,0,0,141,81.09l1.63-2.34c1.69.42,3.72,1,5.73,1.61,1.19-1.12,2.44-2.34,3.53-3.43h-9l-2.5,0c.52-1.43,1.06-3.17,1.64-5h-6.11v-3h7c.2-.75.41-1.48.62-2.21H138V63.75h6.17c.23-.89.44-1.75.62-2.55l3.23.41c-.19.68-.37,1.41-.55,2.14h9.59v2.93h-10.4l-.59,2.21H159v3Z"/><path d="M191,72.72c-1,.8-2.21,1.63-3.35,2.42A10.75,10.75,0,0,0,193.7,82a11.27,11.27,0,0,0-2,2.53c-3.12-1.49-5.18-4.27-6.45-7.8-.26.18-.55.33-.81.49.73,3.12.11,6.11-1.22,7.2a3.81,3.81,0,0,1-3.09,1.22c-.58,0-1.35,0-2.11,0a7,7,0,0,0-.83-2.94,21.94,21.94,0,0,0,2.34.13,1.42,1.42,0,0,0,1.4-.62,3.82,3.82,0,0,0,.76-2.63,41.06,41.06,0,0,1-10.51,5A12.46,12.46,0,0,0,169.52,82c4.11-.89,9.1-3.12,11.67-5.31a9.35,9.35,0,0,0-.38-1,44,44,0,0,1-9.37,4.23,12.68,12.68,0,0,0-1.53-2.39,32.9,32.9,0,0,0,9.73-3.82c-.24-.29-.47-.57-.73-.86a34.54,34.54,0,0,1-7.23,2.73,16.46,16.46,0,0,0-1.56-2.42,31.06,31.06,0,0,0,8.34-2.86H174V67.65h14.54v2.62h-5.78a11.46,11.46,0,0,1-1.56,1.2,9.88,9.88,0,0,1,2.29,3.15,34.64,34.64,0,0,0,4.92-4Zm-17.78-3.44h-3.05V63.41h9.42a12,12,0,0,0-.63-1.38l3.28-.94a14.14,14.14,0,0,1,1.12,2.32h9.25v5.87h-3.17V66.22H173.19Z"/><path class="cls-1" d="M28,2.36s3.45,2.26.18,18.61a115.16,115.16,0,0,1-10.9,30h16.9s7.25-18.22,9-25.5C44.7,19.17,47.05.81,28,2.36Z"/><path class="cls-1" d="M46,8.62s4.54,6.72-2.54,28.88c0,0,17.25,2.36,18.71-14.44S46,8.62,46,8.62Z"/><path d="M72.88,9.52l8.2-.31a.78.78,0,0,1,.8.89c-.49,3-2.93,15.75-3,16.88-.33,2.3-.2,4.37-1.64,4.23-1.83,0-4.77,0-6.61,0-2.61,0-3.22-.05-3-1.28L72,10.28A1,1,0,0,1,72.88,9.52Zm1.91-5.75A5.14,5.14,0,0,1,79.69,0C82,0,83.47,1.68,83,3.77a5.15,5.15,0,0,1-4.94,3.81A3.11,3.11,0,0,1,74.79,3.77Z"/><path d="M104.13,32.33c-1.68,6.07-9,7.65-14.39,7.65s-11.41-1.13-9.94-5.59A4.93,4.93,0,0,1,83,31.11c-.69-.61-1.7-1.79-.71-4.19.74-1.88,2.79-3.15,4.45-3.85a6.4,6.4,0,0,1-1.66-6.25c1.1-5.2,6.08-8.48,11.88-8.48a11,11,0,0,1,2.5.26c.39-1.62,1.21-4.28,4.13-5.38,3.23-1.18,5.48.48,4.5,3.06-.65,1.66-2.63,3-4.17,2.1-1.11-.66-1.28-1.71-2.21-1.18-.3.17-.49.87-.45,1.88,3.16,1.26,4.79,4,4,7.73-1.09,5.16-6.07,8.44-11.87,8.44a10.6,10.6,0,0,1-4.93-1.05c-.7.66-1.06,1.14-.92,1.66.17.84,3.76,1.05,6.88,1.05C98.78,27,105.82,26.21,104.13,32.33ZM97,34.56c.31-1.45-2.79-.92-4.94-1a21.69,21.69,0,0,1-5.56-.69A3.29,3.29,0,0,0,86,34c-.3,1.45,1.56,2.06,5.56,2.19C94.9,36.26,96.76,35.87,97,34.56ZM92.31,16.82c-.59,2.75-.11,4.8,1.84,4.8s3.29-2.05,3.87-4.81.16-4.8-1.84-4.8S92.9,14,92.31,16.82Z"/><path d="M130.51,19.38c-1.44,6.82-6.94,11.1-14.13,11.1s-10.91-4.27-9.46-11.09,6.93-11.06,14.16-11.06S132,12.56,130.51,19.38Zm-8,0c.84-4,.21-6.9-2.26-6.9s-4.39,2.93-5.23,6.91-.22,6.94,2.29,6.94S121.62,23.36,122.46,19.38Z"/><path d="M151,25.14c-1.76,3.8-6,5.33-10.83,5.33-9,0-11.42-5.15-8.17-8,1.6-1.4,4.11-1.23,4.39,1.13.33,2.93,2,3.15,3.65,3.41,1.26.17,3.31.13,3.9-1.23.74-1.66-2-2.14-5-3.58-2.82-1.4-7.17-3.75-4.09-9.48C137,8.8,141.39,8.1,145.46,8.32c6.88.39,8.2,5,5.59,7.51-1.24,1.14-3.67,1.18-4.3-.52-.52-1.44.07-3.41-2.71-3.59A2.63,2.63,0,0,0,141.12,13c-.46,1.18.75,2,3.76,3.32C149.66,18.5,153.52,19.72,151,25.14Z"/><path d="M173,25.13c-1.76,3.8-6,5.33-10.83,5.33-9,0-11.41-5.15-8.16-8,1.59-1.4,4.11-1.23,4.39,1.13.33,2.93,2,3.15,3.65,3.41,1.26.17,3.3.13,3.89-1.23.75-1.66-2-2.14-5-3.58-2.82-1.4-7.17-3.75-4.1-9.48,2.13-3.89,6.48-4.59,10.54-4.37,6.89.39,8.2,5,5.6,7.51-1.24,1.14-3.67,1.18-4.31-.52-.52-1.44.07-3.41-2.7-3.58A2.6,2.6,0,0,0,163.12,13c-.47,1.18.74,2,3.75,3.32C171.66,18.49,175.51,19.71,173,25.13Z"/><rect class="cls-1" x="41.97" y="39.24" width="133.49" height="2.14"/><text class="cls-2" transform="matrix(1.31, 0, -0.15, 0.99, 39.95, 50.16)">En<tspan class="cls-3" x="13.67" y="0">a</tspan><tspan class="cls-4" x="19.43" y="0">bl</tspan><tspan x="29.25" y="0">e IT O</tspan><tspan class="cls-5" x="59.14" y="0">p</tspan><tspan x="65.89" y="0">e</tspan><tspan class="cls-6" x="71.64" y="0">r</tspan><tspan class="cls-7" x="76.65" y="0">at</tspan><tspan class="cls-8" x="86.92" y="0">ion</tspan></text></g></g></svg>