<svg xmlns="http://www.w3.org/2000/svg" viewBox="0 0 144.06 56.18"><defs><style>.cls-1{font-size:22.76px;font-family:PingFangSC-Light-GBpc-EUC-H, PingFang SC;letter-spacing:0.46em;}.cls-1,.cls-2{fill:#014a97;}.cls-3{fill:#e51c21;}</style></defs><title>资源 3</title><g id="图层_2" data-name="图层 2"><g id="图层_1-2" data-name="图层 1"><text class="cls-1" transform="translate(11.17 50.9)">共济科技</text><path class="cls-2" d="M67.2,11.92a7.61,7.61,0,1,0,7.61,7.61A7.61,7.61,0,0,0,67.2,11.92Zm3.14,10.74a4.43,4.43,0,0,1-6.27,0,4.43,4.43,0,1,1,6.27,0Z"/><polygon class="cls-2" points="100.07 17.62 95.7 17.62 95.7 11.92 92.22 11.92 92.22 26.43 95.7 26.43 95.7 20.74 100.07 20.74 100.07 26.43 103.55 26.43 103.55 11.92 100.07 11.92 100.07 17.62"/><path class="cls-2" d="M128.5,16.88a4.93,4.93,0,0,0-5.18-5h-6.94V23.31h-8V20.74H114V17.62h-5.65V15.05H115V11.92H106.3a1.4,1.4,0,0,0-1.4,1.4V24.78a1.65,1.65,0,0,0,1.65,1.65h13.31V21.81h1.65l3.7,0A5.29,5.29,0,0,0,128.5,16.88Zm-4.06,1.61a2.91,2.91,0,0,1-1.14.2h-3.44V15.05h3.46a1.9,1.9,0,0,1,1.58.58,1.85,1.85,0,0,1,.47,1.25,2.07,2.07,0,0,1-.42,1.23A1.84,1.84,0,0,1,124.44,18.49Z"/><path class="cls-2" d="M59,17a5,5,0,0,0-5.27-5H46.7V26.68h3.54V22h5.61C58.19,21.17,59,18.62,59,17ZM54.89,18.6a2.93,2.93,0,0,1-1.15.2h-3.5V15.1h3.52A1.85,1.85,0,0,1,55.85,17a2.12,2.12,0,0,1-.43,1.25A1.78,1.78,0,0,1,54.89,18.6Z"/><polygon class="cls-2" points="53.74 22.58 58.29 28.6 62.26 28.6 57.86 22.58 53.74 22.58"/><polygon class="cls-2" points="127.24 22.58 123.12 22.58 127.67 28.6 131.64 28.6 127.24 22.58"/><polygon class="cls-2" points="82.64 22.58 87.19 28.6 91.16 28.6 86.75 22.58 82.64 22.58"/><rect class="cls-2" x="76.08" y="19.21" width="14.98" height="2.95"/><path class="cls-2" d="M43.51,18.42a4.22,4.22,0,0,0,.59-3.61c-.84-2.89-4.2-2.89-4.2-2.89H33.07v7.69l4.74,7.07h3.27s4.25-.34,4.25-4.25C45.33,19.23,43.51,18.42,43.51,18.42Zm-6.9-3.75h3.16a1.65,1.65,0,1,1,0,3.29H36.61ZM40.93,24H36.61v-3.3h4.32a1.65,1.65,0,0,1,1.63,1.66A1.63,1.63,0,0,1,40.93,24Z"/><path class="cls-3" d="M25.89,8.63h0L20.33,0H9.07l8.57,14.48A187.22,187.22,0,0,0,0,30.21H10.52S29.05,6.44,47.94,0C47.94,0,40.7-.92,25.89,8.63Z"/><polygon class="cls-3" points="21.42 21.06 23.97 27.03 36.31 27.03 28.32 15.1 21.42 21.06"/></g></g></svg>